<mxfile host="app.diagrams.net" modified="2024-01-16T07:58:39.542Z" agent="Mozilla/5.0 (Windows NT 10.0; Win64; x64) AppleWebKit/537.36 (KHTML, like Gecko) Chrome/120.0.0.0 Safari/537.36" etag="y67HeY2QAd6tP2F0dSno" version="22.1.18" type="github">
  <diagram name="Страница — 1" id="TZQz5reuX6D-8SX7QD_3">
    <mxGraphModel dx="989" dy="538" grid="1" gridSize="10" guides="1" tooltips="1" connect="1" arrows="1" fold="1" page="1" pageScale="1" pageWidth="827" pageHeight="1169" math="0" shadow="0">
      <root>
        <mxCell id="0" />
        <mxCell id="1" parent="0" />
        <mxCell id="IFr0whSxEQzEvbE2U8pD-11" style="edgeStyle=orthogonalEdgeStyle;rounded=0;orthogonalLoop=1;jettySize=auto;html=1;exitX=1;exitY=0.5;exitDx=0;exitDy=0;entryX=0;entryY=0.5;entryDx=0;entryDy=0;" edge="1" parent="1" source="IFr0whSxEQzEvbE2U8pD-1" target="IFr0whSxEQzEvbE2U8pD-2">
          <mxGeometry relative="1" as="geometry" />
        </mxCell>
        <mxCell id="IFr0whSxEQzEvbE2U8pD-1" value="Получение информации VPN-сервером" style="rounded=0;whiteSpace=wrap;html=1;" vertex="1" parent="1">
          <mxGeometry x="160" y="230" width="120" height="60" as="geometry" />
        </mxCell>
        <mxCell id="IFr0whSxEQzEvbE2U8pD-7" style="edgeStyle=orthogonalEdgeStyle;rounded=0;orthogonalLoop=1;jettySize=auto;html=1;exitX=1;exitY=0.25;exitDx=0;exitDy=0;entryX=0;entryY=0.5;entryDx=0;entryDy=0;" edge="1" parent="1" source="IFr0whSxEQzEvbE2U8pD-2" target="IFr0whSxEQzEvbE2U8pD-4">
          <mxGeometry relative="1" as="geometry" />
        </mxCell>
        <mxCell id="IFr0whSxEQzEvbE2U8pD-9" style="edgeStyle=orthogonalEdgeStyle;rounded=0;orthogonalLoop=1;jettySize=auto;html=1;exitX=1;exitY=0.75;exitDx=0;exitDy=0;entryX=0;entryY=0.5;entryDx=0;entryDy=0;" edge="1" parent="1" source="IFr0whSxEQzEvbE2U8pD-2" target="IFr0whSxEQzEvbE2U8pD-5">
          <mxGeometry relative="1" as="geometry" />
        </mxCell>
        <mxCell id="IFr0whSxEQzEvbE2U8pD-2" value="Преобразование битов через протокол SSTP" style="rounded=0;whiteSpace=wrap;html=1;" vertex="1" parent="1">
          <mxGeometry x="354" y="230" width="120" height="60" as="geometry" />
        </mxCell>
        <mxCell id="IFr0whSxEQzEvbE2U8pD-3" value="Получение расшифрованных битов пользователем" style="rounded=0;whiteSpace=wrap;html=1;" vertex="1" parent="1">
          <mxGeometry x="730" y="170" width="120" height="60" as="geometry" />
        </mxCell>
        <mxCell id="IFr0whSxEQzEvbE2U8pD-8" style="edgeStyle=orthogonalEdgeStyle;rounded=0;orthogonalLoop=1;jettySize=auto;html=1;exitX=1;exitY=0.5;exitDx=0;exitDy=0;entryX=0;entryY=0.5;entryDx=0;entryDy=0;" edge="1" parent="1" source="IFr0whSxEQzEvbE2U8pD-4" target="IFr0whSxEQzEvbE2U8pD-3">
          <mxGeometry relative="1" as="geometry" />
        </mxCell>
        <mxCell id="IFr0whSxEQzEvbE2U8pD-4" value="Передача информации пользователю" style="rounded=0;whiteSpace=wrap;html=1;" vertex="1" parent="1">
          <mxGeometry x="550" y="170" width="120" height="60" as="geometry" />
        </mxCell>
        <mxCell id="IFr0whSxEQzEvbE2U8pD-10" style="edgeStyle=orthogonalEdgeStyle;rounded=0;orthogonalLoop=1;jettySize=auto;html=1;exitX=1;exitY=0.5;exitDx=0;exitDy=0;entryX=0;entryY=0.5;entryDx=0;entryDy=0;" edge="1" parent="1" source="IFr0whSxEQzEvbE2U8pD-5" target="IFr0whSxEQzEvbE2U8pD-6">
          <mxGeometry relative="1" as="geometry" />
        </mxCell>
        <mxCell id="IFr0whSxEQzEvbE2U8pD-5" value="Передачи информации в Интернет" style="rounded=0;whiteSpace=wrap;html=1;" vertex="1" parent="1">
          <mxGeometry x="550" y="280" width="120" height="60" as="geometry" />
        </mxCell>
        <mxCell id="IFr0whSxEQzEvbE2U8pD-6" value="Получение зашифрованных битов Интернетом" style="rounded=0;whiteSpace=wrap;html=1;" vertex="1" parent="1">
          <mxGeometry x="730" y="280" width="120" height="60" as="geometry" />
        </mxCell>
      </root>
    </mxGraphModel>
  </diagram>
</mxfile>
